ISO-10303-21;
HEADER;
/* Generated by software containing ST-Developer
 * from STEP Tools, Inc. (www.steptools.com) 
 */

FILE_DESCRIPTION(
/* description */ (''),
/* implementation_level */ '2;1');

FILE_NAME(
/* name */ 'Beam0412-140.step.step',
/* time_stamp */ '2026-08-09T11:11:28+02:00',
/* author */ (''),
/* organization */ (''),
/* preprocessor_version */ 'ST-DEVELOPER v20.1',
/* originating_system */ 'Autodesk Translation Framework v15.8.0.0',
/* authorisation */ '');

FILE_SCHEMA (('AUTOMOTIVE_DESIGN { 1 0 10303 214 3 1 1 }'));
ENDSEC;

DATA;
#10=MECHANICAL_DESIGN_GEOMETRIC_PRESENTATION_REPRESENTATION('',(#17),#824);
#11=ITEM_DEFINED_TRANSFORMATION($,$,#488,#542);
#12=(
REPRESENTATION_RELATIONSHIP($,$,#835,#834)
REPRESENTATION_RELATIONSHIP_WITH_TRANSFORMATION(#11)
SHAPE_REPRESENTATION_RELATIONSHIP()
);
#13=CONTEXT_DEPENDENT_SHAPE_REPRESENTATION(#12,#833);
#14=NEXT_ASSEMBLY_USAGE_OCCURRENCE(
'Makeblock-kompatibel Beam0412-140:1',
'Makeblock-kompatibel Beam0412-140:1',
'Makeblock-kompatibel Beam0412-140:1',#837,#838,
'Makeblock-kompatibel Beam0412-140:1');
#15=SHAPE_REPRESENTATION_RELATIONSHIP('SRR','None',#835,#16);
#16=ADVANCED_BREP_SHAPE_REPRESENTATION('',(#18),#823);
#17=STYLED_ITEM('',(#848),#18);
#18=MANIFOLD_SOLID_BREP('Beam0412-140',#474);
#19=FACE_BOUND('',#78,.T.);
#20=FACE_BOUND('',#79,.T.);
#21=FACE_BOUND('',#80,.T.);
#22=FACE_BOUND('',#81,.T.);
#23=FACE_BOUND('',#82,.T.);
#24=FACE_BOUND('',#83,.T.);
#25=FACE_BOUND('',#84,.T.);
#26=FACE_BOUND('',#85,.T.);
#27=FACE_BOUND('',#86,.T.);
#28=FACE_BOUND('',#93,.T.);
#29=FACE_BOUND('',#94,.T.);
#30=FACE_BOUND('',#95,.T.);
#31=FACE_BOUND('',#96,.T.);
#32=FACE_BOUND('',#97,.T.);
#33=FACE_BOUND('',#98,.T.);
#34=FACE_BOUND('',#99,.T.);
#35=FACE_BOUND('',#100,.T.);
#36=FACE_BOUND('',#101,.T.);
#37=CYLINDRICAL_SURFACE('',#498,6.);
#38=CYLINDRICAL_SURFACE('',#520,6.);
#39=CYLINDRICAL_SURFACE('',#532,2.05);
#40=CYLINDRICAL_SURFACE('',#533,2.05);
#41=CYLINDRICAL_SURFACE('',#534,2.05);
#42=CYLINDRICAL_SURFACE('',#535,2.05);
#43=CYLINDRICAL_SURFACE('',#536,2.05);
#44=CYLINDRICAL_SURFACE('',#537,2.05);
#45=CYLINDRICAL_SURFACE('',#538,2.05);
#46=CYLINDRICAL_SURFACE('',#539,2.05);
#47=CYLINDRICAL_SURFACE('',#540,2.05);
#48=FACE_OUTER_BOUND('',#71,.T.);
#49=FACE_OUTER_BOUND('',#72,.T.);
#50=FACE_OUTER_BOUND('',#73,.T.);
#51=FACE_OUTER_BOUND('',#74,.T.);
#52=FACE_OUTER_BOUND('',#75,.T.);
#53=FACE_OUTER_BOUND('',#76,.T.);
#54=FACE_OUTER_BOUND('',#77,.T.);
#55=FACE_OUTER_BOUND('',#87,.T.);
#56=FACE_OUTER_BOUND('',#88,.T.);
#57=FACE_OUTER_BOUND('',#89,.T.);
#58=FACE_OUTER_BOUND('',#90,.T.);
#59=FACE_OUTER_BOUND('',#91,.T.);
#60=FACE_OUTER_BOUND('',#92,.T.);
#61=FACE_OUTER_BOUND('',#102,.T.);
#62=FACE_OUTER_BOUND('',#103,.T.);
#63=FACE_OUTER_BOUND('',#104,.T.);
#64=FACE_OUTER_BOUND('',#105,.T.);
#65=FACE_OUTER_BOUND('',#106,.T.);
#66=FACE_OUTER_BOUND('',#107,.T.);
#67=FACE_OUTER_BOUND('',#108,.T.);
#68=FACE_OUTER_BOUND('',#109,.T.);
#69=FACE_OUTER_BOUND('',#110,.T.);
#70=FACE_OUTER_BOUND('',#111,.T.);
#71=EDGE_LOOP('',(#313,#314,#315,#316));
#72=EDGE_LOOP('',(#317,#318,#319,#320));
#73=EDGE_LOOP('',(#321,#322,#323,#324));
#74=EDGE_LOOP('',(#325,#326,#327,#328));
#75=EDGE_LOOP('',(#329,#330,#331,#332));
#76=EDGE_LOOP('',(#333,#334,#335,#336,#337,#338,#339,#340,#341,#342,#343,
#344));
#77=EDGE_LOOP('',(#345,#346,#347,#348));
#78=EDGE_LOOP('',(#349));
#79=EDGE_LOOP('',(#350));
#80=EDGE_LOOP('',(#351));
#81=EDGE_LOOP('',(#352));
#82=EDGE_LOOP('',(#353));
#83=EDGE_LOOP('',(#354));
#84=EDGE_LOOP('',(#355));
#85=EDGE_LOOP('',(#356));
#86=EDGE_LOOP('',(#357));
#87=EDGE_LOOP('',(#358,#359,#360,#361));
#88=EDGE_LOOP('',(#362,#363,#364,#365));
#89=EDGE_LOOP('',(#366,#367,#368,#369));
#90=EDGE_LOOP('',(#370,#371,#372,#373));
#91=EDGE_LOOP('',(#374,#375,#376,#377,#378,#379,#380,#381,#382,#383,#384,
#385));
#92=EDGE_LOOP('',(#386,#387,#388,#389));
#93=EDGE_LOOP('',(#390));
#94=EDGE_LOOP('',(#391));
#95=EDGE_LOOP('',(#392));
#96=EDGE_LOOP('',(#393));
#97=EDGE_LOOP('',(#394));
#98=EDGE_LOOP('',(#395));
#99=EDGE_LOOP('',(#396));
#100=EDGE_LOOP('',(#397));
#101=EDGE_LOOP('',(#398));
#102=EDGE_LOOP('',(#399,#400,#401,#402));
#103=EDGE_LOOP('',(#403,#404,#405,#406));
#104=EDGE_LOOP('',(#407,#408,#409,#410));
#105=EDGE_LOOP('',(#411,#412,#413,#414));
#106=EDGE_LOOP('',(#415,#416,#417,#418));
#107=EDGE_LOOP('',(#419,#420,#421,#422));
#108=EDGE_LOOP('',(#423,#424,#425,#426));
#109=EDGE_LOOP('',(#427,#428,#429,#430));
#110=EDGE_LOOP('',(#431,#432,#433,#434));
#111=EDGE_LOOP('',(#435,#436,#437,#438));
#112=LINE('',#695,#145);
#113=LINE('',#698,#146);
#114=LINE('',#701,#147);
#115=LINE('',#703,#148);
#116=LINE('',#704,#149);
#117=LINE('',#708,#150);
#118=LINE('',#710,#151);
#119=LINE('',#712,#152);
#120=LINE('',#713,#153);
#121=LINE('',#718,#154);
#122=LINE('',#722,#155);
#123=LINE('',#724,#156);
#124=LINE('',#725,#157);
#125=LINE('',#729,#158);
#126=LINE('',#733,#159);
#127=LINE('',#737,#160);
#128=LINE('',#762,#161);
#129=LINE('',#763,#162);
#130=LINE('',#764,#163);
#131=LINE('',#769,#164);
#132=LINE('',#771,#165);
#133=LINE('',#772,#166);
#134=LINE('',#775,#167);
#135=LINE('',#779,#168);
#136=LINE('',#800,#169);
#137=LINE('',#802,#170);
#138=LINE('',#804,#171);
#139=LINE('',#806,#172);
#140=LINE('',#808,#173);
#141=LINE('',#810,#174);
#142=LINE('',#812,#175);
#143=LINE('',#814,#176);
#144=LINE('',#816,#177);
#145=VECTOR('',#551,10.);
#146=VECTOR('',#554,10.);
#147=VECTOR('',#557,10.);
#148=VECTOR('',#558,10.);
#149=VECTOR('',#559,10.);
#150=VECTOR('',#562,10.);
#151=VECTOR('',#563,10.);
#152=VECTOR('',#564,10.);
#153=VECTOR('',#565,10.);
#154=VECTOR('',#570,10.);
#155=VECTOR('',#575,10.);
#156=VECTOR('',#576,10.);
#157=VECTOR('',#577,10.);
#158=VECTOR('',#582,10.);
#159=VECTOR('',#585,10.);
#160=VECTOR('',#588,10.);
#161=VECTOR('',#615,10.);
#162=VECTOR('',#616,10.);
#163=VECTOR('',#617,10.);
#164=VECTOR('',#624,10.);
#165=VECTOR('',#625,10.);
#166=VECTOR('',#626,10.);
#167=VECTOR('',#629,10.);
#168=VECTOR('',#636,10.);
#169=VECTOR('',#659,2.05);
#170=VECTOR('',#662,2.05);
#171=VECTOR('',#665,2.05);
#172=VECTOR('',#668,2.05);
#173=VECTOR('',#671,2.05);
#174=VECTOR('',#674,2.05);
#175=VECTOR('',#677,2.05);
#176=VECTOR('',#680,2.05);
#177=VECTOR('',#683,2.05);
#178=CIRCLE('',#490,6.);
#179=CIRCLE('',#491,6.);
#180=CIRCLE('',#495,6.);
#181=CIRCLE('',#496,6.);
#182=CIRCLE('',#499,6.);
#183=CIRCLE('',#500,6.);
#184=CIRCLE('',#501,6.);
#185=CIRCLE('',#502,6.);
#186=CIRCLE('',#504,6.);
#187=CIRCLE('',#505,2.05);
#188=CIRCLE('',#506,2.05);
#189=CIRCLE('',#507,2.05);
#190=CIRCLE('',#508,2.05);
#191=CIRCLE('',#509,2.05);
#192=CIRCLE('',#510,2.05);
#193=CIRCLE('',#511,2.05);
#194=CIRCLE('',#512,2.05);
#195=CIRCLE('',#513,2.05);
#196=CIRCLE('',#516,6.);
#197=CIRCLE('',#519,6.);
#198=CIRCLE('',#521,6.);
#199=CIRCLE('',#523,2.05);
#200=CIRCLE('',#524,2.05);
#201=CIRCLE('',#525,2.05);
#202=CIRCLE('',#526,2.05);
#203=CIRCLE('',#527,2.05);
#204=CIRCLE('',#528,2.05);
#205=CIRCLE('',#529,2.05);
#206=CIRCLE('',#530,2.05);
#207=CIRCLE('',#531,2.05);
#208=VERTEX_POINT('',#691);
#209=VERTEX_POINT('',#692);
#210=VERTEX_POINT('',#694);
#211=VERTEX_POINT('',#696);
#212=VERTEX_POINT('',#700);
#213=VERTEX_POINT('',#702);
#214=VERTEX_POINT('',#706);
#215=VERTEX_POINT('',#707);
#216=VERTEX_POINT('',#709);
#217=VERTEX_POINT('',#711);
#218=VERTEX_POINT('',#715);
#219=VERTEX_POINT('',#717);
#220=VERTEX_POINT('',#721);
#221=VERTEX_POINT('',#723);
#222=VERTEX_POINT('',#728);
#223=VERTEX_POINT('',#730);
#224=VERTEX_POINT('',#732);
#225=VERTEX_POINT('',#734);
#226=VERTEX_POINT('',#736);
#227=VERTEX_POINT('',#741);
#228=VERTEX_POINT('',#743);
#229=VERTEX_POINT('',#745);
#230=VERTEX_POINT('',#747);
#231=VERTEX_POINT('',#749);
#232=VERTEX_POINT('',#751);
#233=VERTEX_POINT('',#753);
#234=VERTEX_POINT('',#755);
#235=VERTEX_POINT('',#757);
#236=VERTEX_POINT('',#760);
#237=VERTEX_POINT('',#761);
#238=VERTEX_POINT('',#768);
#239=VERTEX_POINT('',#770);
#240=VERTEX_POINT('',#774);
#241=VERTEX_POINT('',#781);
#242=VERTEX_POINT('',#783);
#243=VERTEX_POINT('',#785);
#244=VERTEX_POINT('',#787);
#245=VERTEX_POINT('',#789);
#246=VERTEX_POINT('',#791);
#247=VERTEX_POINT('',#793);
#248=VERTEX_POINT('',#795);
#249=VERTEX_POINT('',#797);
#250=EDGE_CURVE('',#208,#209,#178,.T.);
#251=EDGE_CURVE('',#208,#210,#112,.T.);
#252=EDGE_CURVE('',#211,#210,#179,.T.);
#253=EDGE_CURVE('',#209,#211,#113,.T.);
#254=EDGE_CURVE('',#212,#208,#114,.T.);
#255=EDGE_CURVE('',#213,#212,#115,.T.);
#256=EDGE_CURVE('',#210,#213,#116,.T.);
#257=EDGE_CURVE('',#214,#215,#117,.T.);
#258=EDGE_CURVE('',#216,#214,#118,.T.);
#259=EDGE_CURVE('',#217,#216,#119,.T.);
#260=EDGE_CURVE('',#215,#217,#120,.T.);
#261=EDGE_CURVE('',#218,#214,#180,.T.);
#262=EDGE_CURVE('',#219,#218,#121,.T.);
#263=EDGE_CURVE('',#216,#219,#181,.T.);
#264=EDGE_CURVE('',#220,#211,#122,.T.);
#265=EDGE_CURVE('',#220,#221,#123,.T.);
#266=EDGE_CURVE('',#221,#209,#124,.T.);
#267=EDGE_CURVE('',#217,#213,#182,.T.);
#268=EDGE_CURVE('',#222,#219,#125,.T.);
#269=EDGE_CURVE('',#222,#223,#183,.T.);
#270=EDGE_CURVE('',#223,#224,#126,.T.);
#271=EDGE_CURVE('',#224,#225,#184,.T.);
#272=EDGE_CURVE('',#225,#226,#127,.T.);
#273=EDGE_CURVE('',#226,#220,#185,.T.);
#274=EDGE_CURVE('',#212,#215,#186,.T.);
#275=EDGE_CURVE('',#227,#227,#187,.T.);
#276=EDGE_CURVE('',#228,#228,#188,.T.);
#277=EDGE_CURVE('',#229,#229,#189,.T.);
#278=EDGE_CURVE('',#230,#230,#190,.T.);
#279=EDGE_CURVE('',#231,#231,#191,.T.);
#280=EDGE_CURVE('',#232,#232,#192,.T.);
#281=EDGE_CURVE('',#233,#233,#193,.T.);
#282=EDGE_CURVE('',#234,#234,#194,.T.);
#283=EDGE_CURVE('',#235,#235,#195,.T.);
#284=EDGE_CURVE('',#236,#237,#128,.T.);
#285=EDGE_CURVE('',#236,#226,#129,.T.);
#286=EDGE_CURVE('',#237,#225,#130,.T.);
#287=EDGE_CURVE('',#221,#236,#196,.T.);
#288=EDGE_CURVE('',#223,#238,#131,.T.);
#289=EDGE_CURVE('',#239,#238,#132,.T.);
#290=EDGE_CURVE('',#224,#239,#133,.T.);
#291=EDGE_CURVE('',#240,#222,#134,.T.);
#292=EDGE_CURVE('',#238,#240,#197,.T.);
#293=EDGE_CURVE('',#237,#239,#198,.T.);
#294=EDGE_CURVE('',#240,#218,#135,.T.);
#295=EDGE_CURVE('',#241,#241,#199,.T.);
#296=EDGE_CURVE('',#242,#242,#200,.T.);
#297=EDGE_CURVE('',#243,#243,#201,.T.);
#298=EDGE_CURVE('',#244,#244,#202,.T.);
#299=EDGE_CURVE('',#245,#245,#203,.T.);
#300=EDGE_CURVE('',#246,#246,#204,.T.);
#301=EDGE_CURVE('',#247,#247,#205,.T.);
#302=EDGE_CURVE('',#248,#248,#206,.T.);
#303=EDGE_CURVE('',#249,#249,#207,.T.);
#304=EDGE_CURVE('',#241,#227,#136,.T.);
#305=EDGE_CURVE('',#242,#228,#137,.T.);
#306=EDGE_CURVE('',#243,#229,#138,.T.);
#307=EDGE_CURVE('',#244,#230,#139,.T.);
#308=EDGE_CURVE('',#245,#231,#140,.T.);
#309=EDGE_CURVE('',#246,#232,#141,.T.);
#310=EDGE_CURVE('',#247,#233,#142,.T.);
#311=EDGE_CURVE('',#248,#234,#143,.T.);
#312=EDGE_CURVE('',#249,#235,#144,.T.);
#313=ORIENTED_EDGE('',*,*,#250,.F.);
#314=ORIENTED_EDGE('',*,*,#251,.T.);
#315=ORIENTED_EDGE('',*,*,#252,.F.);
#316=ORIENTED_EDGE('',*,*,#253,.F.);
#317=ORIENTED_EDGE('',*,*,#254,.F.);
#318=ORIENTED_EDGE('',*,*,#255,.F.);
#319=ORIENTED_EDGE('',*,*,#256,.F.);
#320=ORIENTED_EDGE('',*,*,#251,.F.);
#321=ORIENTED_EDGE('',*,*,#257,.F.);
#322=ORIENTED_EDGE('',*,*,#258,.F.);
#323=ORIENTED_EDGE('',*,*,#259,.F.);
#324=ORIENTED_EDGE('',*,*,#260,.F.);
#325=ORIENTED_EDGE('',*,*,#261,.F.);
#326=ORIENTED_EDGE('',*,*,#262,.F.);
#327=ORIENTED_EDGE('',*,*,#263,.F.);
#328=ORIENTED_EDGE('',*,*,#258,.T.);
#329=ORIENTED_EDGE('',*,*,#253,.T.);
#330=ORIENTED_EDGE('',*,*,#264,.F.);
#331=ORIENTED_EDGE('',*,*,#265,.T.);
#332=ORIENTED_EDGE('',*,*,#266,.T.);
#333=ORIENTED_EDGE('',*,*,#252,.T.);
#334=ORIENTED_EDGE('',*,*,#256,.T.);
#335=ORIENTED_EDGE('',*,*,#267,.F.);
#336=ORIENTED_EDGE('',*,*,#259,.T.);
#337=ORIENTED_EDGE('',*,*,#263,.T.);
#338=ORIENTED_EDGE('',*,*,#268,.F.);
#339=ORIENTED_EDGE('',*,*,#269,.T.);
#340=ORIENTED_EDGE('',*,*,#270,.T.);
#341=ORIENTED_EDGE('',*,*,#271,.T.);
#342=ORIENTED_EDGE('',*,*,#272,.T.);
#343=ORIENTED_EDGE('',*,*,#273,.T.);
#344=ORIENTED_EDGE('',*,*,#264,.T.);
#345=ORIENTED_EDGE('',*,*,#255,.T.);
#346=ORIENTED_EDGE('',*,*,#274,.T.);
#347=ORIENTED_EDGE('',*,*,#260,.T.);
#348=ORIENTED_EDGE('',*,*,#267,.T.);
#349=ORIENTED_EDGE('',*,*,#275,.T.);
#350=ORIENTED_EDGE('',*,*,#276,.T.);
#351=ORIENTED_EDGE('',*,*,#277,.T.);
#352=ORIENTED_EDGE('',*,*,#278,.T.);
#353=ORIENTED_EDGE('',*,*,#279,.T.);
#354=ORIENTED_EDGE('',*,*,#280,.T.);
#355=ORIENTED_EDGE('',*,*,#281,.T.);
#356=ORIENTED_EDGE('',*,*,#282,.T.);
#357=ORIENTED_EDGE('',*,*,#283,.T.);
#358=ORIENTED_EDGE('',*,*,#284,.F.);
#359=ORIENTED_EDGE('',*,*,#285,.T.);
#360=ORIENTED_EDGE('',*,*,#272,.F.);
#361=ORIENTED_EDGE('',*,*,#286,.F.);
#362=ORIENTED_EDGE('',*,*,#287,.F.);
#363=ORIENTED_EDGE('',*,*,#265,.F.);
#364=ORIENTED_EDGE('',*,*,#273,.F.);
#365=ORIENTED_EDGE('',*,*,#285,.F.);
#366=ORIENTED_EDGE('',*,*,#270,.F.);
#367=ORIENTED_EDGE('',*,*,#288,.T.);
#368=ORIENTED_EDGE('',*,*,#289,.F.);
#369=ORIENTED_EDGE('',*,*,#290,.F.);
#370=ORIENTED_EDGE('',*,*,#269,.F.);
#371=ORIENTED_EDGE('',*,*,#291,.F.);
#372=ORIENTED_EDGE('',*,*,#292,.F.);
#373=ORIENTED_EDGE('',*,*,#288,.F.);
#374=ORIENTED_EDGE('',*,*,#250,.T.);
#375=ORIENTED_EDGE('',*,*,#266,.F.);
#376=ORIENTED_EDGE('',*,*,#287,.T.);
#377=ORIENTED_EDGE('',*,*,#284,.T.);
#378=ORIENTED_EDGE('',*,*,#293,.T.);
#379=ORIENTED_EDGE('',*,*,#289,.T.);
#380=ORIENTED_EDGE('',*,*,#292,.T.);
#381=ORIENTED_EDGE('',*,*,#294,.T.);
#382=ORIENTED_EDGE('',*,*,#261,.T.);
#383=ORIENTED_EDGE('',*,*,#257,.T.);
#384=ORIENTED_EDGE('',*,*,#274,.F.);
#385=ORIENTED_EDGE('',*,*,#254,.T.);
#386=ORIENTED_EDGE('',*,*,#286,.T.);
#387=ORIENTED_EDGE('',*,*,#271,.F.);
#388=ORIENTED_EDGE('',*,*,#290,.T.);
#389=ORIENTED_EDGE('',*,*,#293,.F.);
#390=ORIENTED_EDGE('',*,*,#295,.T.);
#391=ORIENTED_EDGE('',*,*,#296,.T.);
#392=ORIENTED_EDGE('',*,*,#297,.T.);
#393=ORIENTED_EDGE('',*,*,#298,.T.);
#394=ORIENTED_EDGE('',*,*,#299,.T.);
#395=ORIENTED_EDGE('',*,*,#300,.T.);
#396=ORIENTED_EDGE('',*,*,#301,.T.);
#397=ORIENTED_EDGE('',*,*,#302,.T.);
#398=ORIENTED_EDGE('',*,*,#303,.T.);
#399=ORIENTED_EDGE('',*,*,#295,.F.);
#400=ORIENTED_EDGE('',*,*,#304,.T.);
#401=ORIENTED_EDGE('',*,*,#275,.F.);
#402=ORIENTED_EDGE('',*,*,#304,.F.);
#403=ORIENTED_EDGE('',*,*,#296,.F.);
#404=ORIENTED_EDGE('',*,*,#305,.T.);
#405=ORIENTED_EDGE('',*,*,#276,.F.);
#406=ORIENTED_EDGE('',*,*,#305,.F.);
#407=ORIENTED_EDGE('',*,*,#297,.F.);
#408=ORIENTED_EDGE('',*,*,#306,.T.);
#409=ORIENTED_EDGE('',*,*,#277,.F.);
#410=ORIENTED_EDGE('',*,*,#306,.F.);
#411=ORIENTED_EDGE('',*,*,#298,.F.);
#412=ORIENTED_EDGE('',*,*,#307,.T.);
#413=ORIENTED_EDGE('',*,*,#278,.F.);
#414=ORIENTED_EDGE('',*,*,#307,.F.);
#415=ORIENTED_EDGE('',*,*,#299,.F.);
#416=ORIENTED_EDGE('',*,*,#308,.T.);
#417=ORIENTED_EDGE('',*,*,#279,.F.);
#418=ORIENTED_EDGE('',*,*,#308,.F.);
#419=ORIENTED_EDGE('',*,*,#300,.F.);
#420=ORIENTED_EDGE('',*,*,#309,.T.);
#421=ORIENTED_EDGE('',*,*,#280,.F.);
#422=ORIENTED_EDGE('',*,*,#309,.F.);
#423=ORIENTED_EDGE('',*,*,#301,.F.);
#424=ORIENTED_EDGE('',*,*,#310,.T.);
#425=ORIENTED_EDGE('',*,*,#281,.F.);
#426=ORIENTED_EDGE('',*,*,#310,.F.);
#427=ORIENTED_EDGE('',*,*,#302,.F.);
#428=ORIENTED_EDGE('',*,*,#311,.T.);
#429=ORIENTED_EDGE('',*,*,#282,.F.);
#430=ORIENTED_EDGE('',*,*,#311,.F.);
#431=ORIENTED_EDGE('',*,*,#303,.F.);
#432=ORIENTED_EDGE('',*,*,#312,.T.);
#433=ORIENTED_EDGE('',*,*,#283,.F.);
#434=ORIENTED_EDGE('',*,*,#312,.F.);
#435=ORIENTED_EDGE('',*,*,#262,.T.);
#436=ORIENTED_EDGE('',*,*,#294,.F.);
#437=ORIENTED_EDGE('',*,*,#291,.T.);
#438=ORIENTED_EDGE('',*,*,#268,.T.);
#439=PLANE('',#489);
#440=PLANE('',#492);
#441=PLANE('',#493);
#442=PLANE('',#494);
#443=PLANE('',#497);
#444=PLANE('',#503);
#445=PLANE('',#514);
#446=PLANE('',#515);
#447=PLANE('',#517);
#448=PLANE('',#518);
#449=PLANE('',#522);
#450=PLANE('',#541);
#451=ADVANCED_FACE('',(#48),#439,.T.);
#452=ADVANCED_FACE('',(#49),#440,.F.);
#453=ADVANCED_FACE('',(#50),#441,.F.);
#454=ADVANCED_FACE('',(#51),#442,.T.);
#455=ADVANCED_FACE('',(#52),#443,.T.);
#456=ADVANCED_FACE('',(#53),#37,.T.);
#457=ADVANCED_FACE('',(#54,#19,#20,#21,#22,#23,#24,#25,#26,#27),#444,.T.);
#458=ADVANCED_FACE('',(#55),#445,.F.);
#459=ADVANCED_FACE('',(#56),#446,.F.);
#460=ADVANCED_FACE('',(#57),#447,.F.);
#461=ADVANCED_FACE('',(#58),#448,.F.);
#462=ADVANCED_FACE('',(#59),#38,.T.);
#463=ADVANCED_FACE('',(#60,#28,#29,#30,#31,#32,#33,#34,#35,#36),#449,.F.);
#464=ADVANCED_FACE('',(#61),#39,.F.);
#465=ADVANCED_FACE('',(#62),#40,.F.);
#466=ADVANCED_FACE('',(#63),#41,.F.);
#467=ADVANCED_FACE('',(#64),#42,.F.);
#468=ADVANCED_FACE('',(#65),#43,.F.);
#469=ADVANCED_FACE('',(#66),#44,.F.);
#470=ADVANCED_FACE('',(#67),#45,.F.);
#471=ADVANCED_FACE('',(#68),#46,.F.);
#472=ADVANCED_FACE('',(#69),#47,.F.);
#473=ADVANCED_FACE('',(#70),#450,.T.);
#474=CLOSED_SHELL('',(#451,#452,#453,#454,#455,#456,#457,#458,#459,#460,
#461,#462,#463,#464,#465,#466,#467,#468,#469,#470,#471,#472,#473));
#475=DERIVED_UNIT_ELEMENT(#477,1.);
#476=DERIVED_UNIT_ELEMENT(#826,-3.);
#477=(
MASS_UNIT()
NAMED_UNIT(*)
SI_UNIT(.KILO.,.GRAM.)
);
#478=DERIVED_UNIT((#475,#476));
#479=MEASURE_REPRESENTATION_ITEM('density measure',
POSITIVE_RATIO_MEASURE(7850.),#478);
#480=PROPERTY_DEFINITION_REPRESENTATION(#485,#482);
#481=PROPERTY_DEFINITION_REPRESENTATION(#486,#483);
#482=REPRESENTATION('material name',(#484),#823);
#483=REPRESENTATION('density',(#479),#823);
#484=DESCRIPTIVE_REPRESENTATION_ITEM('Stahl','Stahl');
#485=PROPERTY_DEFINITION('material property','material name',#838);
#486=PROPERTY_DEFINITION('material property','density of part',#838);
#487=AXIS2_PLACEMENT_3D('',#688,#543,#544);
#488=AXIS2_PLACEMENT_3D('',#689,#545,#546);
#489=AXIS2_PLACEMENT_3D('',#690,#547,#548);
#490=AXIS2_PLACEMENT_3D('',#693,#549,#550);
#491=AXIS2_PLACEMENT_3D('',#697,#552,#553);
#492=AXIS2_PLACEMENT_3D('',#699,#555,#556);
#493=AXIS2_PLACEMENT_3D('',#705,#560,#561);
#494=AXIS2_PLACEMENT_3D('',#714,#566,#567);
#495=AXIS2_PLACEMENT_3D('',#716,#568,#569);
#496=AXIS2_PLACEMENT_3D('',#719,#571,#572);
#497=AXIS2_PLACEMENT_3D('',#720,#573,#574);
#498=AXIS2_PLACEMENT_3D('',#726,#578,#579);
#499=AXIS2_PLACEMENT_3D('',#727,#580,#581);
#500=AXIS2_PLACEMENT_3D('',#731,#583,#584);
#501=AXIS2_PLACEMENT_3D('',#735,#586,#587);
#502=AXIS2_PLACEMENT_3D('',#738,#589,#590);
#503=AXIS2_PLACEMENT_3D('',#739,#591,#592);
#504=AXIS2_PLACEMENT_3D('',#740,#593,#594);
#505=AXIS2_PLACEMENT_3D('',#742,#595,#596);
#506=AXIS2_PLACEMENT_3D('',#744,#597,#598);
#507=AXIS2_PLACEMENT_3D('',#746,#599,#600);
#508=AXIS2_PLACEMENT_3D('',#748,#601,#602);
#509=AXIS2_PLACEMENT_3D('',#750,#603,#604);
#510=AXIS2_PLACEMENT_3D('',#752,#605,#606);
#511=AXIS2_PLACEMENT_3D('',#754,#607,#608);
#512=AXIS2_PLACEMENT_3D('',#756,#609,#610);
#513=AXIS2_PLACEMENT_3D('',#758,#611,#612);
#514=AXIS2_PLACEMENT_3D('',#759,#613,#614);
#515=AXIS2_PLACEMENT_3D('',#765,#618,#619);
#516=AXIS2_PLACEMENT_3D('',#766,#620,#621);
#517=AXIS2_PLACEMENT_3D('',#767,#622,#623);
#518=AXIS2_PLACEMENT_3D('',#773,#627,#628);
#519=AXIS2_PLACEMENT_3D('',#776,#630,#631);
#520=AXIS2_PLACEMENT_3D('',#777,#632,#633);
#521=AXIS2_PLACEMENT_3D('',#778,#634,#635);
#522=AXIS2_PLACEMENT_3D('',#780,#637,#638);
#523=AXIS2_PLACEMENT_3D('',#782,#639,#640);
#524=AXIS2_PLACEMENT_3D('',#784,#641,#642);
#525=AXIS2_PLACEMENT_3D('',#786,#643,#644);
#526=AXIS2_PLACEMENT_3D('',#788,#645,#646);
#527=AXIS2_PLACEMENT_3D('',#790,#647,#648);
#528=AXIS2_PLACEMENT_3D('',#792,#649,#650);
#529=AXIS2_PLACEMENT_3D('',#794,#651,#652);
#530=AXIS2_PLACEMENT_3D('',#796,#653,#654);
#531=AXIS2_PLACEMENT_3D('',#798,#655,#656);
#532=AXIS2_PLACEMENT_3D('',#799,#657,#658);
#533=AXIS2_PLACEMENT_3D('',#801,#660,#661);
#534=AXIS2_PLACEMENT_3D('',#803,#663,#664);
#535=AXIS2_PLACEMENT_3D('',#805,#666,#667);
#536=AXIS2_PLACEMENT_3D('',#807,#669,#670);
#537=AXIS2_PLACEMENT_3D('',#809,#672,#673);
#538=AXIS2_PLACEMENT_3D('',#811,#675,#676);
#539=AXIS2_PLACEMENT_3D('',#813,#678,#679);
#540=AXIS2_PLACEMENT_3D('',#815,#681,#682);
#541=AXIS2_PLACEMENT_3D('',#817,#684,#685);
#542=AXIS2_PLACEMENT_3D('',#818,#686,#687);
#543=DIRECTION('axis',(0.,0.,1.));
#544=DIRECTION('refdir',(1.,0.,0.));
#545=DIRECTION('axis',(0.,0.,1.));
#546=DIRECTION('refdir',(1.,0.,0.));
#547=DIRECTION('center_axis',(0.,0.,1.));
#548=DIRECTION('ref_axis',(1.,0.,0.));
#549=DIRECTION('center_axis',(0.,0.,-1.));
#550=DIRECTION('ref_axis',(0.,1.,0.));
#551=DIRECTION('',(1.,0.,0.));
#552=DIRECTION('center_axis',(0.,0.,-1.));
#553=DIRECTION('ref_axis',(0.,-1.,0.));
#554=DIRECTION('',(1.,0.,0.));
#555=DIRECTION('center_axis',(0.,-1.,0.));
#556=DIRECTION('ref_axis',(1.,0.,0.));
#557=DIRECTION('',(0.,0.,-1.));
#558=DIRECTION('',(-1.,0.,0.));
#559=DIRECTION('',(0.,0.,1.));
#560=DIRECTION('center_axis',(0.,1.,0.));
#561=DIRECTION('ref_axis',(-1.,0.,0.));
#562=DIRECTION('',(0.,0.,1.));
#563=DIRECTION('',(-1.,0.,0.));
#564=DIRECTION('',(0.,0.,-1.));
#565=DIRECTION('',(1.,0.,0.));
#566=DIRECTION('center_axis',(0.,0.,1.));
#567=DIRECTION('ref_axis',(1.,0.,0.));
#568=DIRECTION('center_axis',(0.,0.,-1.));
#569=DIRECTION('ref_axis',(0.,1.,0.));
#570=DIRECTION('',(-1.,0.,0.));
#571=DIRECTION('center_axis',(0.,0.,-1.));
#572=DIRECTION('ref_axis',(0.,-1.,0.));
#573=DIRECTION('center_axis',(0.,1.,0.));
#574=DIRECTION('ref_axis',(-1.,0.,0.));
#575=DIRECTION('',(0.,0.,1.));
#576=DIRECTION('',(-1.,0.,0.));
#577=DIRECTION('',(0.,0.,1.));
#578=DIRECTION('center_axis',(0.,0.,1.));
#579=DIRECTION('ref_axis',(0.,-1.,0.));
#580=DIRECTION('center_axis',(0.,0.,1.));
#581=DIRECTION('ref_axis',(0.,-1.,0.));
#582=DIRECTION('',(0.,0.,1.));
#583=DIRECTION('center_axis',(0.,0.,1.));
#584=DIRECTION('ref_axis',(0.,-1.,0.));
#585=DIRECTION('',(0.,0.,-1.));
#586=DIRECTION('center_axis',(0.,0.,1.));
#587=DIRECTION('ref_axis',(0.,-1.,0.));
#588=DIRECTION('',(0.,0.,1.));
#589=DIRECTION('center_axis',(0.,0.,1.));
#590=DIRECTION('ref_axis',(0.,-1.,0.));
#591=DIRECTION('center_axis',(0.,0.,1.));
#592=DIRECTION('ref_axis',(1.,0.,0.));
#593=DIRECTION('center_axis',(0.,0.,1.));
#594=DIRECTION('ref_axis',(0.,1.,0.));
#595=DIRECTION('center_axis',(0.,0.,-1.));
#596=DIRECTION('ref_axis',(1.,0.,0.));
#597=DIRECTION('center_axis',(0.,0.,-1.));
#598=DIRECTION('ref_axis',(1.,0.,0.));
#599=DIRECTION('center_axis',(0.,0.,-1.));
#600=DIRECTION('ref_axis',(1.,0.,0.));
#601=DIRECTION('center_axis',(0.,0.,-1.));
#602=DIRECTION('ref_axis',(1.,0.,0.));
#603=DIRECTION('center_axis',(0.,0.,-1.));
#604=DIRECTION('ref_axis',(1.,0.,0.));
#605=DIRECTION('center_axis',(0.,0.,-1.));
#606=DIRECTION('ref_axis',(1.,0.,0.));
#607=DIRECTION('center_axis',(0.,0.,-1.));
#608=DIRECTION('ref_axis',(1.,0.,0.));
#609=DIRECTION('center_axis',(0.,0.,-1.));
#610=DIRECTION('ref_axis',(1.,0.,0.));
#611=DIRECTION('center_axis',(0.,0.,-1.));
#612=DIRECTION('ref_axis',(1.,0.,0.));
#613=DIRECTION('center_axis',(0.,-1.,0.));
#614=DIRECTION('ref_axis',(1.,0.,0.));
#615=DIRECTION('',(0.,0.,-1.));
#616=DIRECTION('',(1.,0.,0.));
#617=DIRECTION('',(1.,0.,0.));
#618=DIRECTION('center_axis',(0.,0.,1.));
#619=DIRECTION('ref_axis',(1.,0.,0.));
#620=DIRECTION('center_axis',(0.,0.,1.));
#621=DIRECTION('ref_axis',(0.,1.,0.));
#622=DIRECTION('center_axis',(0.,1.,0.));
#623=DIRECTION('ref_axis',(-1.,0.,0.));
#624=DIRECTION('',(-1.,0.,0.));
#625=DIRECTION('',(0.,0.,1.));
#626=DIRECTION('',(-1.,0.,0.));
#627=DIRECTION('center_axis',(0.,0.,1.));
#628=DIRECTION('ref_axis',(1.,0.,0.));
#629=DIRECTION('',(1.,0.,0.));
#630=DIRECTION('center_axis',(0.,0.,1.));
#631=DIRECTION('ref_axis',(0.,1.,0.));
#632=DIRECTION('center_axis',(0.,0.,1.));
#633=DIRECTION('ref_axis',(0.,1.,0.));
#634=DIRECTION('center_axis',(0.,0.,1.));
#635=DIRECTION('ref_axis',(0.,1.,0.));
#636=DIRECTION('',(0.,0.,1.));
#637=DIRECTION('center_axis',(0.,0.,1.));
#638=DIRECTION('ref_axis',(1.,0.,0.));
#639=DIRECTION('center_axis',(0.,0.,1.));
#640=DIRECTION('ref_axis',(1.,0.,0.));
#641=DIRECTION('center_axis',(0.,0.,1.));
#642=DIRECTION('ref_axis',(1.,0.,0.));
#643=DIRECTION('center_axis',(0.,0.,1.));
#644=DIRECTION('ref_axis',(1.,0.,0.));
#645=DIRECTION('center_axis',(0.,0.,1.));
#646=DIRECTION('ref_axis',(1.,0.,0.));
#647=DIRECTION('center_axis',(0.,0.,1.));
#648=DIRECTION('ref_axis',(1.,0.,0.));
#649=DIRECTION('center_axis',(0.,0.,1.));
#650=DIRECTION('ref_axis',(1.,0.,0.));
#651=DIRECTION('center_axis',(0.,0.,1.));
#652=DIRECTION('ref_axis',(1.,0.,0.));
#653=DIRECTION('center_axis',(0.,0.,1.));
#654=DIRECTION('ref_axis',(1.,0.,0.));
#655=DIRECTION('center_axis',(0.,0.,1.));
#656=DIRECTION('ref_axis',(1.,0.,0.));
#657=DIRECTION('center_axis',(0.,0.,1.));
#658=DIRECTION('ref_axis',(1.,0.,0.));
#659=DIRECTION('',(0.,0.,1.));
#660=DIRECTION('center_axis',(0.,0.,1.));
#661=DIRECTION('ref_axis',(1.,0.,0.));
#662=DIRECTION('',(0.,0.,1.));
#663=DIRECTION('center_axis',(0.,0.,1.));
#664=DIRECTION('ref_axis',(1.,0.,0.));
#665=DIRECTION('',(0.,0.,1.));
#666=DIRECTION('center_axis',(0.,0.,1.));
#667=DIRECTION('ref_axis',(1.,0.,0.));
#668=DIRECTION('',(0.,0.,1.));
#669=DIRECTION('center_axis',(0.,0.,1.));
#670=DIRECTION('ref_axis',(1.,0.,0.));
#671=DIRECTION('',(0.,0.,1.));
#672=DIRECTION('center_axis',(0.,0.,1.));
#673=DIRECTION('ref_axis',(1.,0.,0.));
#674=DIRECTION('',(0.,0.,1.));
#675=DIRECTION('center_axis',(0.,0.,1.));
#676=DIRECTION('ref_axis',(1.,0.,0.));
#677=DIRECTION('',(0.,0.,1.));
#678=DIRECTION('center_axis',(0.,0.,1.));
#679=DIRECTION('ref_axis',(1.,0.,0.));
#680=DIRECTION('',(0.,0.,1.));
#681=DIRECTION('center_axis',(0.,0.,1.));
#682=DIRECTION('ref_axis',(1.,0.,0.));
#683=DIRECTION('',(0.,0.,1.));
#684=DIRECTION('center_axis',(0.,-1.,0.));
#685=DIRECTION('ref_axis',(1.,0.,0.));
#686=DIRECTION('',(0.,0.,1.));
#687=DIRECTION('',(1.,0.,0.));
#688=CARTESIAN_POINT('',(0.,0.,0.));
#689=CARTESIAN_POINT('',(0.,0.,0.));
#690=CARTESIAN_POINT('Origin',(70.,8.5,3.));
#691=CARTESIAN_POINT('',(1.52786404500042,4.,3.));
#692=CARTESIAN_POINT('',(6.,6.,3.));
#693=CARTESIAN_POINT('Origin',(6.,0.,3.));
#694=CARTESIAN_POINT('',(138.472135955,4.,3.));
#695=CARTESIAN_POINT('',(-7.,4.,3.));
#696=CARTESIAN_POINT('',(134.,6.,3.));
#697=CARTESIAN_POINT('Origin',(134.,0.,3.));
#698=CARTESIAN_POINT('',(102.,6.,3.));
#699=CARTESIAN_POINT('Origin',(-7.,4.,3.));
#700=CARTESIAN_POINT('',(1.52786404500042,4.,4.));
#701=CARTESIAN_POINT('',(1.52786404500042,4.,0.));
#702=CARTESIAN_POINT('',(138.472135955,4.,4.));
#703=CARTESIAN_POINT('',(31.5,4.,4.));
#704=CARTESIAN_POINT('',(138.472135955,4.,0.));
#705=CARTESIAN_POINT('Origin',(147.,-4.,3.));
#706=CARTESIAN_POINT('',(1.52786404500042,-4.,3.));
#707=CARTESIAN_POINT('',(1.52786404500042,-4.,4.));
#708=CARTESIAN_POINT('',(1.52786404500042,-4.,0.));
#709=CARTESIAN_POINT('',(138.472135955,-4.,3.));
#710=CARTESIAN_POINT('',(147.,-4.,3.));
#711=CARTESIAN_POINT('',(138.472135955,-4.,4.));
#712=CARTESIAN_POINT('',(138.472135955,-4.,0.));
#713=CARTESIAN_POINT('',(108.5,-4.,4.));
#714=CARTESIAN_POINT('Origin',(70.,-8.5,3.));
#715=CARTESIAN_POINT('',(6.,-6.,3.));
#716=CARTESIAN_POINT('Origin',(6.,0.,3.));
#717=CARTESIAN_POINT('',(134.,-6.,3.));
#718=CARTESIAN_POINT('',(38.,-6.,3.));
#719=CARTESIAN_POINT('Origin',(134.,0.,3.));
#720=CARTESIAN_POINT('Origin',(134.,6.,0.));
#721=CARTESIAN_POINT('',(134.,6.,1.));
#722=CARTESIAN_POINT('',(134.,6.,0.));
#723=CARTESIAN_POINT('',(6.,6.,1.));
#724=CARTESIAN_POINT('',(102.,6.,1.));
#725=CARTESIAN_POINT('',(6.,6.,0.));
#726=CARTESIAN_POINT('Origin',(134.,0.,0.));
#727=CARTESIAN_POINT('Origin',(134.,0.,4.));
#728=CARTESIAN_POINT('',(134.,-6.,1.));
#729=CARTESIAN_POINT('',(134.,-6.,0.));
#730=CARTESIAN_POINT('',(138.472135955,-4.,1.));
#731=CARTESIAN_POINT('Origin',(134.,0.,1.));
#732=CARTESIAN_POINT('',(138.472135955,-4.,0.));
#733=CARTESIAN_POINT('',(138.472135955,-4.,0.));
#734=CARTESIAN_POINT('',(138.472135955,4.,0.));
#735=CARTESIAN_POINT('Origin',(134.,0.,0.));
#736=CARTESIAN_POINT('',(138.472135955,4.,1.));
#737=CARTESIAN_POINT('',(138.472135955,4.,0.));
#738=CARTESIAN_POINT('Origin',(134.,0.,1.));
#739=CARTESIAN_POINT('Origin',(70.,0.,4.));
#740=CARTESIAN_POINT('Origin',(6.,0.,4.));
#741=CARTESIAN_POINT('',(115.95,-2.51052593825208E-16,4.));
#742=CARTESIAN_POINT('Origin',(118.,0.,4.));
#743=CARTESIAN_POINT('',(83.95,-2.51052593825208E-16,4.));
#744=CARTESIAN_POINT('Origin',(86.,0.,4.));
#745=CARTESIAN_POINT('',(67.95,-2.51052593825208E-16,4.));
#746=CARTESIAN_POINT('Origin',(70.,0.,4.));
#747=CARTESIAN_POINT('',(35.95,-2.51052593825208E-16,4.));
#748=CARTESIAN_POINT('Origin',(38.,0.,4.));
#749=CARTESIAN_POINT('',(19.95,-2.51052593825208E-16,4.));
#750=CARTESIAN_POINT('Origin',(22.,0.,4.));
#751=CARTESIAN_POINT('',(51.95,-2.51052593825208E-16,4.));
#752=CARTESIAN_POINT('Origin',(54.,0.,4.));
#753=CARTESIAN_POINT('',(3.95,-2.51052593825207E-16,4.));
#754=CARTESIAN_POINT('Origin',(6.,0.,4.));
#755=CARTESIAN_POINT('',(99.95,-2.51052593825208E-16,4.));
#756=CARTESIAN_POINT('Origin',(102.,0.,4.));
#757=CARTESIAN_POINT('',(131.95,-2.51052593825208E-16,4.));
#758=CARTESIAN_POINT('Origin',(134.,0.,4.));
#759=CARTESIAN_POINT('Origin',(-7.,4.,0.));
#760=CARTESIAN_POINT('',(1.52786404500042,4.,1.));
#761=CARTESIAN_POINT('',(1.52786404500042,4.,0.));
#762=CARTESIAN_POINT('',(1.52786404500042,4.,0.));
#763=CARTESIAN_POINT('',(-7.,4.,1.));
#764=CARTESIAN_POINT('',(31.5,4.,0.));
#765=CARTESIAN_POINT('Origin',(70.,8.5,1.));
#766=CARTESIAN_POINT('Origin',(6.,0.,1.));
#767=CARTESIAN_POINT('Origin',(147.,-4.,0.));
#768=CARTESIAN_POINT('',(1.52786404500042,-4.,1.));
#769=CARTESIAN_POINT('',(147.,-4.,1.));
#770=CARTESIAN_POINT('',(1.52786404500042,-4.,0.));
#771=CARTESIAN_POINT('',(1.52786404500042,-4.,0.));
#772=CARTESIAN_POINT('',(108.5,-4.,0.));
#773=CARTESIAN_POINT('Origin',(70.,-8.5,1.));
#774=CARTESIAN_POINT('',(6.,-6.,1.));
#775=CARTESIAN_POINT('',(38.,-6.,1.));
#776=CARTESIAN_POINT('Origin',(6.,0.,1.));
#777=CARTESIAN_POINT('Origin',(6.,0.,0.));
#778=CARTESIAN_POINT('Origin',(6.,0.,0.));
#779=CARTESIAN_POINT('',(6.,-6.,0.));
#780=CARTESIAN_POINT('Origin',(70.,0.,0.));
#781=CARTESIAN_POINT('',(115.95,-2.51052593825208E-16,0.));
#782=CARTESIAN_POINT('Origin',(118.,0.,0.));
#783=CARTESIAN_POINT('',(83.95,-2.51052593825208E-16,0.));
#784=CARTESIAN_POINT('Origin',(86.,0.,0.));
#785=CARTESIAN_POINT('',(67.95,-2.51052593825208E-16,0.));
#786=CARTESIAN_POINT('Origin',(70.,0.,0.));
#787=CARTESIAN_POINT('',(35.95,-2.51052593825208E-16,0.));
#788=CARTESIAN_POINT('Origin',(38.,0.,0.));
#789=CARTESIAN_POINT('',(19.95,-2.51052593825208E-16,0.));
#790=CARTESIAN_POINT('Origin',(22.,0.,0.));
#791=CARTESIAN_POINT('',(51.95,-2.51052593825208E-16,0.));
#792=CARTESIAN_POINT('Origin',(54.,0.,0.));
#793=CARTESIAN_POINT('',(3.95,-2.51052593825207E-16,0.));
#794=CARTESIAN_POINT('Origin',(6.,0.,0.));
#795=CARTESIAN_POINT('',(99.95,-2.51052593825208E-16,0.));
#796=CARTESIAN_POINT('Origin',(102.,0.,0.));
#797=CARTESIAN_POINT('',(131.95,-2.51052593825208E-16,0.));
#798=CARTESIAN_POINT('Origin',(134.,0.,0.));
#799=CARTESIAN_POINT('Origin',(118.,0.,0.));
#800=CARTESIAN_POINT('',(115.95,-2.51052593825208E-16,0.));
#801=CARTESIAN_POINT('Origin',(86.,0.,0.));
#802=CARTESIAN_POINT('',(83.95,-2.51052593825208E-16,0.));
#803=CARTESIAN_POINT('Origin',(70.,0.,0.));
#804=CARTESIAN_POINT('',(67.95,-2.51052593825208E-16,0.));
#805=CARTESIAN_POINT('Origin',(38.,0.,0.));
#806=CARTESIAN_POINT('',(35.95,-2.51052593825208E-16,0.));
#807=CARTESIAN_POINT('Origin',(22.,0.,0.));
#808=CARTESIAN_POINT('',(19.95,-2.51052593825208E-16,0.));
#809=CARTESIAN_POINT('Origin',(54.,0.,0.));
#810=CARTESIAN_POINT('',(51.95,-2.51052593825208E-16,0.));
#811=CARTESIAN_POINT('Origin',(6.,0.,0.));
#812=CARTESIAN_POINT('',(3.95,-2.51052593825207E-16,0.));
#813=CARTESIAN_POINT('Origin',(102.,0.,0.));
#814=CARTESIAN_POINT('',(99.95,-2.51052593825208E-16,0.));
#815=CARTESIAN_POINT('Origin',(134.,0.,0.));
#816=CARTESIAN_POINT('',(131.95,-2.51052593825208E-16,0.));
#817=CARTESIAN_POINT('Origin',(6.,-6.,0.));
#818=CARTESIAN_POINT('',(0.,0.,0.));
#819=UNCERTAINTY_MEASURE_WITH_UNIT(LENGTH_MEASURE(0.01),#825,
'DISTANCE_ACCURACY_VALUE',
'Maximum model space distance between geometric entities at asserted c
onnectivities');
#820=UNCERTAINTY_MEASURE_WITH_UNIT(LENGTH_MEASURE(0.01),#825,
'DISTANCE_ACCURACY_VALUE',
'Maximum model space distance between geometric entities at asserted c
onnectivities');
#821=UNCERTAINTY_MEASURE_WITH_UNIT(LENGTH_MEASURE(0.01),#825,
'DISTANCE_ACCURACY_VALUE',
'Maximum model space distance between geometric entities at asserted c
onnectivities');
#822=(
GEOMETRIC_REPRESENTATION_CONTEXT(3)
GLOBAL_UNCERTAINTY_ASSIGNED_CONTEXT((#819))
GLOBAL_UNIT_ASSIGNED_CONTEXT((#825,#827,#828))
REPRESENTATION_CONTEXT('','3D')
);
#823=(
GEOMETRIC_REPRESENTATION_CONTEXT(3)
GLOBAL_UNCERTAINTY_ASSIGNED_CONTEXT((#820))
GLOBAL_UNIT_ASSIGNED_CONTEXT((#825,#827,#828))
REPRESENTATION_CONTEXT('','3D')
);
#824=(
GEOMETRIC_REPRESENTATION_CONTEXT(3)
GLOBAL_UNCERTAINTY_ASSIGNED_CONTEXT((#821))
GLOBAL_UNIT_ASSIGNED_CONTEXT((#825,#827,#828))
REPRESENTATION_CONTEXT('','3D')
);
#825=(
LENGTH_UNIT()
NAMED_UNIT(*)
SI_UNIT(.MILLI.,.METRE.)
);
#826=(
LENGTH_UNIT()
NAMED_UNIT(*)
SI_UNIT($,.METRE.)
);
#827=(
NAMED_UNIT(*)
PLANE_ANGLE_UNIT()
SI_UNIT($,.RADIAN.)
);
#828=(
NAMED_UNIT(*)
SI_UNIT($,.STERADIAN.)
SOLID_ANGLE_UNIT()
);
#829=SHAPE_DEFINITION_REPRESENTATION(#831,#834);
#830=SHAPE_DEFINITION_REPRESENTATION(#832,#835);
#831=PRODUCT_DEFINITION_SHAPE('',$,#837);
#832=PRODUCT_DEFINITION_SHAPE('',$,#838);
#833=PRODUCT_DEFINITION_SHAPE($,$,#14);
#834=SHAPE_REPRESENTATION('',(#487,#542),#822);
#835=SHAPE_REPRESENTATION('',(#488),#823);
#836=PRODUCT_DEFINITION_CONTEXT('part definition',#844,'design');
#837=PRODUCT_DEFINITION('(Nicht gespeichert)','(Nicht gespeichert)',#839,
#836);
#838=PRODUCT_DEFINITION('Makeblock-kompatibel Beam0412-140',
'Makeblock-kompatibel Beam0412-140',#840,#836);
#839=PRODUCT_DEFINITION_FORMATION('',$,#846);
#840=PRODUCT_DEFINITION_FORMATION('',$,#847);
#841=PRODUCT_RELATED_PRODUCT_CATEGORY('(Nicht gespeichert)',
'(Nicht gespeichert)',(#846));
#842=PRODUCT_RELATED_PRODUCT_CATEGORY(
'Makeblock-kompatibel Beam0412-140','Makeblock-kompatibel Beam0412-140',
(#847));
#843=APPLICATION_PROTOCOL_DEFINITION('international standard',
'automotive_design',2009,#844);
#844=APPLICATION_CONTEXT(
'Core Data for Automotive Mechanical Design Process');
#845=PRODUCT_CONTEXT('part definition',#844,'mechanical');
#846=PRODUCT('(Nicht gespeichert)','(Nicht gespeichert)',$,(#845));
#847=PRODUCT('Makeblock-kompatibel Beam0412-140',
'Makeblock-kompatibel Beam0412-140',$,(#845));
#848=PRESENTATION_STYLE_ASSIGNMENT((#849));
#849=SURFACE_STYLE_USAGE(.BOTH.,#850);
#850=SURFACE_SIDE_STYLE('',(#851));
#851=SURFACE_STYLE_FILL_AREA(#852);
#852=FILL_AREA_STYLE('Stahl - satiniert',(#853));
#853=FILL_AREA_STYLE_COLOUR('Stahl - satiniert',#854);
#854=COLOUR_RGB('Stahl - satiniert',0.627450980392157,0.627450980392157,
0.627450980392157);
ENDSEC;
END-ISO-10303-21;
